<svg width="33" height="28" viewBox="0 0 33 28" fill="none" xmlns="http://www.w3.org/2000/svg">
<path d="M29.3996 2.98572C27.7884 1.3745 25.6553 0.493874 23.3787 0.493874C21.1021 0.493874 18.9626 1.38102 17.3513 2.99224L16.5098 3.83373L15.6553 2.9792C14.0441 1.36798 11.898 0.474304 9.62139 0.474304C7.35133 0.474304 5.21174 1.36145 3.60704 2.96615C1.99582 4.57737 1.10867 6.71697 1.11519 8.99355C1.11519 11.2701 2.00887 13.4032 3.62009 15.0144L15.8706 27.2649C16.0402 27.4345 16.2685 27.5258 16.4903 27.5258C16.7121 27.5258 16.9404 27.441 17.11 27.2714L29.3866 15.0405C30.9978 13.4293 31.8849 11.2897 31.8849 9.01312C31.8914 6.73653 31.0108 4.59694 29.3996 2.98572ZM28.1472 13.7946L16.4903 25.4058L4.85949 13.775C3.58095 12.4965 2.87645 10.8005 2.87645 8.99355C2.87645 7.18663 3.57442 5.49061 4.85296 4.2186C6.12498 2.94658 7.821 2.24208 9.62139 2.24208C11.4283 2.24208 13.1308 2.94658 14.4094 4.22512L15.8836 5.69935C16.2293 6.04508 16.7838 6.04508 17.1295 5.69935L18.5907 4.23817C19.8693 2.95963 21.5718 2.25513 23.3722 2.25513C25.1726 2.25513 26.8686 2.95963 28.1472 4.23164C29.4257 5.51018 30.1237 7.2062 30.1237 9.01312C30.1302 10.82 29.4257 12.5161 28.1472 13.7946Z" fill="#E6EEF8" stroke="#E6EEF8" stroke-width="0.615396"/>
<path d="M16.1197 11.0862C16.2353 10.6623 16.9049 10.2121 17.2701 10.0243C17.8236 9.7396 18.4712 9.72556 18.8432 10.3291C19.1731 10.8642 19.2989 12.0015 18.9121 12.5512C18.3917 13.2907 16.6709 13.1613 15.8837 13.205C15.2186 13.242 15.7036 11.8858 15.9673 11.622C16.4065 11.1828 17.0488 11.0005 17.624 10.8207C18.3256 10.6015 19.0455 10.3191 19.7773 10.2209C20.3845 10.1395 20.1338 9.86272 20.033 9.33602C19.9751 9.03379 19.9248 8.69086 19.9248 8.38228C19.9248 7.685 20.7881 7.47002 21.2522 7.21223C21.9048 6.84964 22.3562 6.66162 23.1105 6.66162C24.0347 6.66162 24.267 7.28721 24.8361 7.85625C25.1849 8.20512 25.3642 9.5841 24.9246 9.93579C24.6712 10.1385 25.0782 9.93263 25.1802 9.80797C25.2971 9.66508 25.3181 9.43997 25.4113 9.27703C25.4747 9.16599 25.6571 8.95027 25.3719 9.18362C25.2022 9.32245 25.1217 9.40437 25.0376 9.58183C24.7935 10.0971 24.545 10.8999 23.9954 11.1747" stroke="#E6EEF8" stroke-width="9" stroke-linecap="round"/>
<path d="M24.6148 7.19256C24.7329 7.19256 25.2843 7.11078 25.3031 7.16306C25.4064 7.45015 25.4609 7.74679 25.5882 8.03323C25.9099 8.75689 25.4112 9.40844 25.4112 10.1128C25.4112 10.477 25.4036 10.7885 25.3277 11.1304C25.2519 11.4713 24.8943 11.5976 24.7033 11.8629C24.4853 12.1657 24.065 12.3124 23.7791 12.5463C23.4456 12.8191 23.175 13.2339 22.8647 13.5443C22.3288 14.0801 21.769 14.4982 21.2128 14.9749C20.7701 15.3544 20.2072 15.5822 19.7921 15.9974C19.4305 16.359 18.8895 16.3228 18.5089 16.6611C18.1514 16.9789 17.3525 17.1218 17.1816 17.6345" stroke="#E6EEF8" stroke-width="9" stroke-linecap="round"/>
<path d="M13.6419 8.43146C13.1807 8.33921 13.1235 7.11972 13.5731 6.94678C13.7455 6.88048 13.9497 6.79481 14.1286 6.75505C14.2297 6.73258 14.4477 6.88277 14.4384 6.77963C14.3731 6.06183 13.1182 5.54784 12.5309 5.33427C11.8242 5.0773 11.0189 4.89182 10.2793 4.89182C9.44743 4.89182 8.64562 4.59917 7.80153 4.71975C7.38147 4.77976 7.13574 5.0894 6.78388 5.24578C6.56138 5.34467 6.11879 5.62066 5.94321 5.77673C5.7222 5.97319 5.44244 6.08834 5.23528 6.30768C4.92951 6.63144 4.78391 7.12014 4.5716 7.50231C4.1931 8.1836 4.35037 9.15924 4.35037 9.91615C4.35037 10.6145 4.54893 11.0489 5.10255 11.4795C5.54698 11.8252 6.16309 12.0556 6.65114 12.3693C6.94595 12.5588 7.33266 12.7411 7.5803 12.9888C7.89859 13.3071 8.33099 13.4081 8.68644 13.6721C9.41328 14.212 10.1631 14.7292 10.938 15.1519C11.3075 15.3534 11.5537 15.7649 11.9114 15.9925C12.1502 16.1445 12.3537 16.3952 12.4719 16.6611C12.5284 16.7883 12.6401 17.0253 12.4178 16.9512C11.6836 16.7064 11.009 16.2772 10.2989 15.9729C9.61718 15.6807 9.69349 15.3619 9.66476 14.5718C9.61731 13.2669 9.73159 11.952 9.65492 10.6487C9.60378 9.77924 9.30588 8.9117 9.30588 8.05783C9.30588 7.97916 9.28255 7.28768 9.36487 7.34007C9.74941 7.58478 10.0161 7.78239 10.0826 8.25448C10.1812 8.95437 10.3272 9.64318 9.50744 9.92106C9.1002 10.0591 7.77589 10.386 7.49672 9.82766C7.31355 9.46131 7.01477 8.42459 7.47706 8.18565C8.45895 7.67816 10.0403 7.89858 10.9577 8.43638C11.8244 8.94444 11.7639 9.90592 11.6558 10.8011C11.581 11.4202 11.4126 12.2009 10.8102 12.5021" stroke="#E6EEF8" stroke-width="5" stroke-linecap="round"/>
<path d="M11.7836 15.7762C11.8188 16.3751 12.58 16.5847 12.58 17.2363C12.58 17.8248 13.0761 18.2473 13.3568 18.6964C13.4738 18.8836 13.7947 18.9951 13.9762 19.1585C14.1667 19.33 14.2948 19.6081 14.4826 19.7583C14.7164 19.9453 15.4661 20.5468 15.5002 20.8202C15.5623 21.3163 15.9898 21.8036 16.1246 22.2754C16.2265 22.6322 16.3354 22.496 16.6064 22.2852C16.8763 22.0753 17.1327 21.8707 17.3586 21.6166C17.8342 21.0815 18.2854 20.5637 18.6417 19.9304C18.9405 19.3991 19.7478 18.6342 19.7478 17.9885" stroke="#E6EEF8" stroke-width="5" stroke-linecap="round"/>
<path d="M14.5268 17.4575C13.9391 17.548 13.4533 17.723 12.8455 17.723C12.5009 17.723 12.1475 17.6345 11.8279 17.6345C11.3361 17.6345 11.1869 17.5236 10.943 17.0544C10.488 16.1796 10.0431 15.2926 9.61559 14.4046C8.49746 12.0823 6.77313 10.0825 5.67773 7.76285C5.4535 7.28799 5.91121 7.07158 6.3365 6.94676C7.97929 6.46464 9.9752 7.21623 11.4493 7.89067C13.2396 8.70976 15.7657 10.303 15.7657 12.5905" stroke="#E6EEF8" stroke-width="5" stroke-linecap="round"/>
</svg>
