<svg width="39" height="39" viewBox="0 0 39 39" fill="none" xmlns="http://www.w3.org/2000/svg">
<path d="M9.72641 4.30585C9.38847 3.72357 9.58838 2.97628 10.1707 2.63834C10.7529 2.30039 11.5002 2.49872 11.8382 3.08259L13.4057 5.79567C13.7437 6.37795 13.5438 7.12523 12.9615 7.46318C12.3792 7.80112 11.6319 7.6028 11.294 7.01893L9.72641 4.30585ZM19.4729 8.32946C22.489 8.32946 25.2179 9.55114 27.1948 11.528C29.1701 13.5049 30.3934 16.2355 30.3934 19.25C30.3934 22.2661 29.1717 24.9951 27.1948 26.972C25.2179 28.9489 22.489 30.1705 19.4729 30.1705C16.4568 30.1705 13.7278 28.9489 11.7509 26.972C9.7756 24.9951 8.55233 22.2661 8.55233 19.25C8.55233 16.2339 9.77401 13.5049 11.7509 11.528C13.7278 9.55273 16.4583 8.32946 19.4729 8.32946ZM25.5448 13.1781C23.9915 11.6248 21.8448 10.6633 19.4729 10.6633C17.1009 10.6633 14.9542 11.6248 13.401 13.1781C11.8477 14.7314 10.8862 16.878 10.8862 19.25C10.8862 21.622 11.8477 23.7686 13.401 25.3219C14.9542 26.8752 17.1009 27.8367 19.4729 27.8367C21.8448 27.8367 23.9915 26.8752 25.5448 25.3219C27.0981 23.7686 28.0595 21.622 28.0595 19.25C28.0595 16.878 27.0981 14.7314 25.5448 13.1781ZM18.5019 1.43411C18.5019 0.758222 19.0492 0.210846 19.7251 0.210846C20.401 0.210846 20.9484 0.758222 20.9484 1.43411V4.56764C20.9484 5.24353 20.401 5.7909 19.7251 5.7909C19.0492 5.7909 18.5019 5.24353 18.5019 4.56764V1.43411ZM27.5439 3.33961C27.8787 2.75733 28.6228 2.55584 29.2066 2.89061C29.7889 3.22538 29.9904 3.96949 29.6556 4.55336L28.0881 7.26644C27.7533 7.84872 27.0092 8.05022 26.4253 7.71545C25.8431 7.38067 25.6416 6.63656 25.9763 6.05269L27.5439 3.33961ZM34.417 9.50354C34.9993 9.1656 35.7466 9.36551 36.0845 9.94779C36.4225 10.5301 36.2242 11.2774 35.6403 11.6153L32.9272 13.1829C32.3449 13.5208 31.5976 13.3209 31.2597 12.7386C30.9218 12.1563 31.1201 11.409 31.7039 11.0711L34.417 9.50354ZM37.2888 18.279C37.9647 18.279 38.512 18.8264 38.512 19.5023C38.512 20.1782 37.9647 20.7255 37.2888 20.7255H34.1552C33.4793 20.7255 32.932 20.1782 32.932 19.5023C32.932 18.8264 33.4793 18.279 34.1552 18.279H37.2888ZM35.3833 27.321C35.9655 27.6558 36.167 28.3999 35.8323 28.9838C35.4975 29.5661 34.7534 29.7675 34.1695 29.4328L31.4564 27.8652C30.8742 27.5304 30.6727 26.7863 31.0074 26.2025C31.3422 25.6202 32.0863 25.4187 32.6702 25.7535L35.3833 27.321ZM29.2193 34.1942C29.5573 34.7764 29.3574 35.5237 28.7751 35.8617C28.1928 36.1996 27.4455 36.0013 27.1076 35.4174L25.54 32.7043C25.2021 32.1221 25.402 31.3748 25.9843 31.0368C26.5665 30.6989 27.3138 30.8972 27.6518 31.4811L29.2193 34.1942ZM20.4439 37.0659C20.4439 37.7418 19.8965 38.2892 19.2206 38.2892C18.5447 38.2892 17.9973 37.7418 17.9973 37.0659V33.9324C17.9973 33.2565 18.5447 32.7091 19.2206 32.7091C19.8965 32.7091 20.4439 33.2565 20.4439 33.9324V37.0659ZM11.4019 35.1604C11.0671 35.7427 10.323 35.9442 9.7391 35.6094C9.15682 35.2746 8.95533 34.5305 9.2901 33.9466L10.8577 31.2336C11.1924 30.6513 11.9365 30.4498 12.5204 30.7846C13.1027 31.1193 13.3042 31.8634 12.9694 32.4473L11.4019 35.1604ZM4.52872 28.9965C3.94644 29.3344 3.19915 29.1345 2.86121 28.5522C2.52326 27.9699 2.72159 27.2226 3.30546 26.8847L6.01854 25.3171C6.60082 24.9792 7.3481 25.1791 7.68605 25.7614C8.02399 26.3437 7.82567 27.091 7.2418 27.4289L4.52872 28.9965ZM1.65698 20.221C0.981092 20.221 0.433716 19.6736 0.433716 18.9977C0.433716 18.3218 0.981092 17.7745 1.65698 17.7745H4.79051C5.4664 17.7745 6.01377 18.3218 6.01377 18.9977C6.01377 19.6736 5.4664 20.221 4.79051 20.221H1.65698ZM3.56248 11.179C2.9802 10.8442 2.77871 10.1001 3.11348 9.51623C3.44825 8.93395 4.19236 8.73246 4.77623 9.06723L7.48931 10.6348C8.07159 10.9696 8.27309 11.7137 7.93832 12.2975C7.60354 12.8798 6.85943 13.0813 6.27556 12.7465L3.56248 11.179Z" fill="#9CA5B5"/>
</svg>
