<svg width="33" height="29" viewBox="0 0 33 29" fill="none" xmlns="http://www.w3.org/2000/svg">
<path d="M29.2844 3.51142C27.6732 1.9002 25.5402 1.01957 23.2636 1.01957C20.987 1.01957 18.8474 1.90672 17.2362 3.51794L16.3947 4.35943L15.5402 3.50489C13.9289 1.89367 11.7828 1 9.50623 1C7.23617 1 5.09658 1.88715 3.49188 3.49185C1.88066 5.10307 0.993513 7.24266 1.00004 9.51924C1.00004 11.7958 1.89371 13.9289 3.50493 15.5401L15.7554 27.7906C15.925 27.9602 16.1533 28.0515 16.3751 28.0515C16.5969 28.0515 16.8252 27.9667 16.9948 27.7971L29.2714 15.5662C30.8826 13.955 31.7698 11.8154 31.7698 9.53881C31.7763 7.26223 30.8957 5.12264 29.2844 3.51142ZM28.032 14.3203L16.3751 25.9315L4.74433 14.3007C3.46579 13.0222 2.76129 11.3262 2.76129 9.51924C2.76129 7.71233 3.45927 6.01631 4.7378 4.74429C6.00982 3.47228 7.70584 2.76778 9.50623 2.76778C11.3131 2.76778 13.0157 3.47228 14.2942 4.75082L15.7685 6.22505C16.1142 6.57078 16.6687 6.57078 17.0144 6.22505L18.4756 4.76386C19.7541 3.48532 21.4567 2.78082 23.257 2.78082C25.0574 2.78082 26.7535 3.48532 28.032 4.75734C29.3105 6.03588 30.0085 7.7319 30.0085 9.53881C30.015 11.3457 29.3105 13.0417 28.032 14.3203Z" fill="white" stroke="white" stroke-width="0.615396"/>
<path d="M18.7767 10.9408C19.0694 11.504 19.1641 12.5551 18.7969 13.0769C18.2765 13.8164 16.5558 13.687 15.7686 13.7307C15.1035 13.7677 15.5884 12.4115 15.8521 12.1477C16.2913 11.7085 16.9336 11.5262 17.5089 11.3464C17.9255 11.2162 18.3486 11.0638 18.7767 10.9408C19.0696 10.8568 19.3649 10.7865 19.6622 10.7466C20.2693 10.6652 20.0187 10.3884 19.9178 9.86172C19.8599 9.55948 19.8096 9.21656 19.8096 8.90798C19.8096 8.21069 20.673 7.99572 21.137 7.73793C21.7897 7.37534 22.2411 7.18732 22.9953 7.18732C23.9195 7.18732 24.1519 7.8129 24.7209 8.38195C24.9615 8.62257 25.1214 9.35322 25.0533 9.89886C25.106 9.83692 25.1696 9.78063 25.2568 9.70931C25.542 9.47596 25.3596 9.69168 25.2961 9.80272C25.203 9.96567 25.182 10.1908 25.065 10.3337C24.9903 10.4251 24.7515 10.5601 24.7293 10.5458C24.7255 10.5433 24.728 10.5366 24.7385 10.5247C24.8029 10.3764 24.8628 10.2334 24.9225 10.1075C24.9634 10.0212 25.0034 9.95751 25.0533 9.89886C25.1214 9.35322 24.9615 8.62257 24.7209 8.38195C24.1519 7.8129 23.9195 7.18732 22.9953 7.18732C22.2411 7.18732 21.7897 7.37534 21.137 7.73793C20.673 7.99572 19.8096 8.21069 19.8096 8.90798C19.8096 9.21656 19.8599 9.55948 19.9178 9.86172C20.0187 10.3884 20.2693 10.6652 19.6622 10.7466C19.3649 10.7865 19.0696 10.8568 18.7767 10.9408Z" fill="white"/>
<path d="M16.0045 11.6119C16.1201 11.188 16.7897 10.7378 17.1549 10.55C17.7085 10.2653 18.3561 10.2513 18.7281 10.8548C19.058 11.3899 19.1837 12.5272 18.7969 13.0769C18.2765 13.8164 16.5558 13.687 15.7686 13.7307C15.1035 13.7677 15.5884 12.4115 15.8521 12.1477C16.2913 11.7085 16.9336 11.5262 17.5089 11.3464C18.2105 11.1272 18.9303 10.8448 19.6622 10.7466C20.2693 10.6652 20.0187 10.3884 19.9178 9.86172C19.8599 9.55948 19.8096 9.21656 19.8096 8.90798C19.8096 8.21069 20.673 7.99572 21.137 7.73793C21.7897 7.37534 22.2411 7.18732 22.9953 7.18732C23.9195 7.18732 24.1519 7.8129 24.7209 8.38195C25.0698 8.73082 25.249 10.1098 24.8094 10.4615C24.5561 10.6642 24.963 10.4583 25.065 10.3337C25.182 10.1908 25.203 9.96567 25.2961 9.80272C25.3596 9.69168 25.542 9.47596 25.2568 9.70931C25.0871 9.84815 25.0065 9.93007 24.9225 10.1075C24.6784 10.6228 24.4298 11.4256 23.8802 11.7004" stroke="white" stroke-width="9" stroke-linecap="round"/>
<path d="M24.4997 7.71826C24.6177 7.71826 25.1691 7.63647 25.1879 7.68876C25.2913 7.97585 25.3458 8.27249 25.4731 8.55892C25.7947 9.28259 25.2961 9.93414 25.2961 10.6385C25.2961 11.0027 25.2885 11.3142 25.2125 11.6561C25.1368 11.997 24.7792 12.1233 24.5882 12.3886C24.3701 12.6914 23.9498 12.8381 23.6639 13.072C23.3304 13.3448 23.0598 13.7596 22.7495 14.07C22.2137 14.6058 21.6538 15.0239 21.0977 15.5006C20.6549 15.8801 20.0921 16.1079 19.6769 16.5231C19.3153 16.8847 18.7743 16.8485 18.3938 17.1868C18.0363 17.5046 17.2373 17.6475 17.0664 18.1602" stroke="white" stroke-width="9" stroke-linecap="round"/>
<path d="M9.54338 14.8906C9.96225 15.1742 10.3886 15.4407 10.8229 15.6776C11.1923 15.8791 11.4386 16.2906 11.7963 16.5182C12.0351 16.6702 12.2385 16.9209 12.3567 17.1868C12.4133 17.314 12.5249 17.551 12.3027 17.4769C11.5684 17.2321 10.8939 16.8029 10.1838 16.4986C9.50202 16.2064 9.57833 15.8876 9.5496 15.0975C9.54709 15.0285 9.54504 14.9596 9.54338 14.8906C9.51369 13.6537 9.61238 12.4088 9.53977 11.1744C9.52509 10.9249 9.49011 10.6756 9.44768 10.4268C9.42972 10.4337 9.41126 10.4403 9.39228 10.4468C8.98504 10.5848 7.66073 10.9117 7.38157 10.3534C7.19839 9.987 6.89961 8.95029 7.3619 8.71135C7.86895 8.44928 8.53584 8.38132 9.18862 8.45094C9.18557 8.22907 9.18609 7.82528 9.24971 7.86577C9.57782 8.07457 9.82017 8.24908 9.92553 8.58907C9.94365 8.64754 9.95772 8.7109 9.96747 8.78018C10.0638 9.46386 10.2053 10.137 9.44768 10.4268C9.49011 10.6756 9.52509 10.9249 9.53977 11.1744C9.61238 12.4088 9.51369 13.6537 9.54338 14.8906Z" fill="white"/>
<path d="M13.5268 8.95716C13.0655 8.86491 13.0083 7.64542 13.458 7.47247C13.6303 7.40617 13.8346 7.32051 14.0135 7.28074C14.1146 7.25828 14.3326 7.40846 14.3232 7.30532C14.2579 6.58752 13.003 6.07354 12.4157 5.85997C11.709 5.60299 10.9038 5.41751 10.1641 5.41751C9.33227 5.41751 8.53046 5.12486 7.68637 5.24545C7.26631 5.30546 7.02058 5.6151 6.66872 5.77148C6.44622 5.87037 6.00364 6.14635 5.82806 6.30243C5.60704 6.49888 5.32728 6.61403 5.12013 6.83337C4.81435 7.15714 4.66876 7.64584 4.45644 8.028C4.07795 8.7093 4.23521 9.68494 4.23521 10.4418C4.23521 11.1402 4.43377 11.5746 4.98739 12.0052C5.43182 12.3509 6.04793 12.5813 6.53598 12.895C6.83079 13.0845 7.2175 13.2668 7.46514 13.5145C7.78344 13.8327 8.21583 13.9338 8.57128 14.1978C9.29812 14.7377 10.048 15.2549 10.8229 15.6776C11.1923 15.8791 11.4386 16.2906 11.7963 16.5182C12.0351 16.6702 12.2385 16.9209 12.3567 17.1868C12.4133 17.314 12.5249 17.551 12.3027 17.4769C11.5684 17.2321 10.8939 16.8029 10.1838 16.4986C9.50202 16.2064 9.57833 15.8876 9.5496 15.0975C9.50215 13.7926 9.61643 12.4777 9.53977 11.1744C9.48862 10.3049 9.19072 9.43739 9.19072 8.58353C9.19072 8.50486 9.16739 7.81338 9.24971 7.86577C9.63425 8.11047 9.90098 8.30808 9.96747 8.78018C10.066 9.48007 10.212 10.1689 9.39228 10.4468C8.98504 10.5848 7.66073 10.9117 7.38157 10.3534C7.19839 9.987 6.89961 8.95029 7.3619 8.71135C8.34379 8.20386 9.92513 8.42427 10.8426 8.96208C11.7092 9.47013 11.6488 10.4316 11.5406 11.3268C11.4659 11.9459 11.2974 12.7266 10.6951 13.0278" stroke="white" stroke-width="5" stroke-linecap="round"/>
<path d="M11.6685 16.3019C11.7037 16.9008 12.4649 17.1103 12.4649 17.762C12.4649 18.3505 12.9609 18.7729 13.2416 19.2221C13.3586 19.4093 13.6795 19.5208 13.8611 19.6842C14.0515 19.8557 14.1796 20.1338 14.3674 20.284C14.6012 20.471 15.3509 21.0725 15.3851 21.3459C15.4471 21.842 15.8746 22.3293 16.0094 22.8011C16.1114 23.1579 16.2202 23.0217 16.4912 22.8109C16.7611 22.601 17.0175 22.3964 17.2434 22.1423C17.7191 21.6072 18.1703 21.0894 18.5265 20.4561C18.8254 19.9248 19.6327 19.1599 19.6327 18.5142" stroke="white" stroke-width="5" stroke-linecap="round"/>
<path d="M14.4117 17.9832C13.824 18.0737 13.3381 18.2487 12.7304 18.2487C12.3858 18.2487 12.0323 18.1602 11.7127 18.1602C11.221 18.1602 11.0718 18.0493 10.8278 17.5801C10.3729 16.7053 9.92799 15.8183 9.50043 14.9303C8.3823 12.608 6.65797 10.6082 5.56257 8.28854C5.33834 7.81369 5.79605 7.59727 6.22134 7.47246C7.86413 6.99033 9.86004 7.74193 11.3342 8.41636C13.1245 9.23546 15.6506 10.8287 15.6506 13.1162" stroke="white" stroke-width="5" stroke-linecap="round"/>
</svg>
