<svg width="50" height="43" viewBox="0 0 40 43" fill="none" xmlns="http://www.w3.org/2000/svg">
<path fill-rule="evenodd" clip-rule="evenodd" d="M0.00564556 12.3061C0.00589102 11.2938 0.757739 10.0511 1.68804 9.52839L17.9516 0.391259C18.8806 -0.130725 20.3853 -0.130725 21.3161 0.393093L37.5853 9.54765C38.5146 10.0703 39.2674 11.3135 39.2672 12.3302L39.2603 30.5785C39.2601 31.5925 38.507 32.84 37.5794 33.3647L21.2808 42.5814C20.3527 43.1064 18.85 43.1062 17.9204 42.5791L1.67896 33.367C0.751112 32.8409 -0.000490682 31.5943 2.40354e-07 30.5815L0.00564556 12.3061ZM3.4264 10.822L19.5861 19.2487L34.9927 10.9323L19.5601 2.46911L3.4264 10.822ZM2.38417 13.5493C2.38417 13.9225 2.12275 30.0226 2.12275 30.0226C2.1144 30.5283 2.48284 31.1498 2.94922 31.4128L18.0726 39.9364L18.2118 22.1901C18.2118 22.1901 2.38417 13.1759 2.38417 13.5493ZM21.0655 39.8979L36.017 31.0354C36.5895 30.6961 37.0536 29.9087 37.0536 29.2751V13.4587L21.0655 22.0583V39.8979Z" fill="#5F697F"/>
<path fill-rule="evenodd" clip-rule="evenodd" d="M7.33631 22.4363C6.16252 23.0695 4.60629 22.6048 3.86058 21.3988C3.11512 20.1927 3.46244 18.7017 4.63624 18.0688C5.81028 17.4356 7.36651 17.9003 8.11197 19.1064C8.85768 20.3124 8.51036 21.8034 7.33631 22.4363ZM15.1911 27.2504C14.0173 27.8836 12.4611 27.4189 11.7153 26.2129C10.9699 25.0068 11.3172 23.5158 12.491 22.8829C13.665 22.2497 15.2213 22.7144 15.9667 23.9204C16.7124 25.1265 16.3651 26.6175 15.1911 27.2504ZM7.33631 30.9183C6.16252 31.5514 4.60629 31.0868 3.86058 29.8807C3.11512 28.6747 3.46244 27.1837 4.63624 26.5508C5.81028 25.9176 7.36651 26.3823 8.11197 27.5883C8.85768 28.7944 8.51036 30.2853 7.33631 30.9183ZM15.1911 35.7324C14.0173 36.3655 12.4611 35.9009 11.7153 34.6948C10.9699 33.4888 11.3172 31.9978 12.491 31.3648C13.665 30.7317 15.2213 31.1964 15.9667 32.4024C16.7124 33.6084 16.3651 35.0994 15.1911 35.7324ZM34.3955 17.8396C33.2214 17.2064 31.6655 17.6711 30.9197 18.8771C30.1743 20.0832 30.5214 21.5741 31.6954 22.2071C32.8694 22.8403 34.4257 22.3756 35.1711 21.1695C35.9169 19.9635 35.5695 18.4725 34.3955 17.8396ZM30.4097 24.4876C29.2359 23.8544 27.6797 24.3191 26.9339 25.5251C26.1885 26.7312 26.5358 28.2222 27.7096 28.8551C28.8836 29.4883 30.4399 29.0236 31.1853 27.8176C31.931 26.6115 31.5837 25.1205 30.4097 24.4876ZM26.2368 30.9064C25.063 30.2732 23.5068 30.7379 22.7611 31.9439C22.0156 33.15 22.363 34.6409 23.5368 35.2739C24.7108 35.907 26.267 35.4424 27.0125 34.2363C27.7582 33.0303 27.4109 31.5393 26.2368 30.9064ZM19.791 7.92828C18.2321 7.92828 16.9682 9.0573 16.9682 10.4499C16.9682 11.8426 18.2321 12.9716 19.791 12.9716C21.3499 12.9716 22.6138 11.8426 22.6138 10.4499C22.6138 9.0573 21.3499 7.92828 19.791 7.92828Z" fill="#5F697F"/>
</svg>
